<svg width="512" height="512" viewBox="0 0 512 512" fill="none" xmlns="http://www.w3.org/2000/svg">
<rect width="512" height="512" rx="76.8" fill="#0D1A2E"/>
<path d="M372 170L256 286L170 200L106 264L106 170L74 170L74 342L106 342L106 286L170 350L256 264L372 380L404 380L404 170L372 170Z" fill="url(#paint0_linear_logo)"/>
<path d="M190 200L256 264L322 200L388 264L388 170L322 170L256 234L190 170L124 170L124 264L190 200Z" fill="url(#paint1_linear_logo)"/>
<path d="M256 286L170 200L106 264L74 232L74 342H106L170 350L256 264L372 380L404 348V170H372L256 286Z" fill="url(#paint2_linear_logo)"/>
<circle cx="106" cy="170" r="10" fill="#60A5FA"/>
<circle cx="170" cy="350" r="10" fill="#60A5FA"/>
<circle cx="256" cy="264" r="10" fill="#60A5FA"/>
<circle cx="372" cy="380" r="10" fill="#60A5FA"/>
<defs>
<linearGradient id="paint0_linear_logo" x1="256" y1="170" x2="256" y2="380" gradientUnits="userSpaceOnUse">
<stop stop-color="#3B82F6"/>
<stop offset="1" stop-color="#60A5FA"/>
</linearGradient>
<linearGradient id="paint1_linear_logo" x1="256" y1="170" x2="256" y2="264" gradientUnits="userSpaceOnUse">
<stop stop-color="#93C5FD"/>
<stop offset="1" stop-color="#60A5FA"/>
</linearGradient>
<linearGradient id="paint2_linear_logo" x1="256" y1="170" x2="256" y2="380" gradientUnits="userSpaceOnUse">
<stop stop-color="#3B82F6"/>
<stop offset="1" stop-color="#60A5FA"/>
</linearGradient>
</defs>
</svg>